<svg width="21" height="21" viewBox="0 0 21 21" fill="none" xmlns="http://www.w3.org/2000/svg">
<path d="M15.028 11.4785C15.778 11.4785 16.438 11.0685 16.778 10.4485L20.358 3.95852C20.728 3.29852 20.248 2.47852 19.488 2.47852H4.68803L3.74803 0.478516H0.478027V2.47852H2.47803L6.07803 10.0685L4.72803 12.5085C3.99803 13.8485 4.95803 15.4785 6.47803 15.4785H18.478V13.4785H6.47803L7.57803 11.4785H15.028ZM5.63803 4.47852H17.788L15.028 9.47852H8.00803L5.63803 4.47852ZM6.47803 16.4785C5.37803 16.4785 4.48803 17.3785 4.48803 18.4785C4.48803 19.5785 5.37803 20.4785 6.47803 20.4785C7.57803 20.4785 8.47803 19.5785 8.47803 18.4785C8.47803 17.3785 7.57803 16.4785 6.47803 16.4785ZM16.478 16.4785C15.378 16.4785 14.488 17.3785 14.488 18.4785C14.488 19.5785 15.378 20.4785 16.478 20.4785C17.578 20.4785 18.478 19.5785 18.478 18.4785C18.478 17.3785 17.578 16.4785 16.478 16.4785Z" fill="#4889F7"/>
</svg>
